<?xml version="1.0" encoding="utf-8"?>
<!-- Generator: Adobe Illustrator 27.5.0, SVG Export Plug-In . SVG Version: 6.00 Build 0)  -->
<svg version="1.1" xmlns="http://www.w3.org/2000/svg" xmlns:xlink="http://www.w3.org/1999/xlink" x="0px" y="0px"
	 viewBox="0 0 1122 1122" style="enable-background:new 0 0 1122 1122;" xml:space="preserve">
<g id="background">
	<rect id="XMLID_213_" style="fill:#FFFFFF;" width="1122" height="1122"/>
</g>
<g id="Background1">
	<circle id="XMLID_1190_" style="fill:#09C4A3;" cx="542.612" cy="542.581" r="326.749"/>
</g>
<g id="Object">
	<g id="XMLID_819_">
		<g id="XMLID_833_">
			
				<ellipse id="XMLID_838_" transform="matrix(0.7071 -0.7071 0.7071 0.7071 -125.0436 501.3097)" style="fill:#DC891A;" cx="542.612" cy="401.596" rx="78.092" ry="78.092"/>
			
				<ellipse id="XMLID_837_" transform="matrix(0.7071 -0.7071 0.7071 0.7071 -127.86 494.5103)" style="fill:#FFB327;" cx="532.997" cy="401.596" rx="78.092" ry="78.092"/>
			<g id="XMLID_834_">
				<path id="XMLID_835_" style="fill:#FFFFFF;" d="M534.125,446.017v-10.929c-6.277-0.108-12.769-2.056-16.556-4.762l2.596-7.249
					c3.896,2.597,9.523,4.653,15.583,4.653c7.683,0,12.877-4.436,12.877-10.604c0-5.952-4.221-9.63-12.228-12.877
					c-11.038-4.329-17.855-9.307-17.855-18.72c0-8.982,6.384-15.799,16.339-17.423v-10.929h6.71v10.497
					c6.492,0.217,10.929,1.948,14.066,3.787l-2.705,7.142c-2.273-1.299-6.709-3.68-13.634-3.68c-8.333,0-11.471,4.978-11.471,9.307
					c0,5.626,4.004,8.441,13.419,12.337c11.146,4.544,16.773,10.171,16.773,19.803c0,8.548-5.952,16.556-17.098,18.395v11.254
					H534.125z"/>
			</g>
		</g>
		<path id="XMLID_832_" style="fill:#DC891A;" d="M488.151,317.591c-4.681-7.537-9.697-14.846-15.044-21.925
			c-2.569-3.401-8.134,0.254-5.543,3.684c5.348,7.079,10.363,14.389,15.044,21.925C484.868,324.915,490.413,321.234,488.151,317.591
			z"/>
		<path id="XMLID_831_" style="fill:#DC891A;" d="M524.991,310.847c-1.833-9.312-2.765-18.771-2.938-28.257
			c-0.078-4.285-6.721-3.894-6.643,0.383c0.184,10.108,1.326,20.093,3.277,30.009C519.51,317.166,525.809,315.001,524.991,310.847z"
			/>
		<path id="XMLID_821_" style="fill:#DC891A;" d="M558.631,284.807c-4.483,7.682-7.706,15.977-9.638,24.658
			c-0.932,4.187,5.578,5.576,6.508,1.396c1.815-8.154,4.85-15.819,9.06-23.032C566.726,284.12,560.782,281.121,558.631,284.807z"/>
		<path id="XMLID_820_" style="fill:#DC891A;" d="M605.687,294.097c-7.193,7.305-13.363,15.488-18.483,24.368
			c-2.145,3.721,3.797,6.721,5.93,3.022c4.844-8.402,10.719-16.054,17.522-22.964C613.667,295.465,608.687,291.05,605.687,294.097z"
			/>
	</g>
	<g id="XMLID_769_">
		<polygon id="XMLID_771_" style="fill:#124460;" points="745.463,367.061 687.109,385.928 703.845,402.641 582.042,521.155 
			478.2,496.953 332.282,666.823 347.095,678.716 484.573,514.802 587.455,541.114 712.508,411.292 727.548,426.311 		"/>
		<path id="XMLID_770_" style="fill:#124460;" d="M782.886,840.955V481.042c0-4.94-4.042-8.982-8.982-8.982h-87.534
			c-4.94,0-8.982,4.042-8.982,8.982v359.913h-11.342v-259.13c0-4.94-4.042-8.982-8.982-8.982h-87.534
			c-4.94,0-8.982,4.042-8.982,8.982v259.13h-11.342V653.496c0-4.94-4.042-8.982-8.982-8.982h-87.534
			c-4.94,0-8.982,4.042-8.982,8.982v187.459h-11.342V738.611c0-4.94-4.042-8.982-8.982-8.982h-87.534
			c-4.94,0-8.982,4.042-8.982,8.982v102.344h-34.522v34.616h526.452v-34.616H782.886z"/>
	</g>
</g>
</svg>
