<svg width="409" height="415" viewBox="0 0 409 415" fill="none" xmlns="http://www.w3.org/2000/svg">
<g clip-path="url(#clip0_2009_1258)">
<path d="M227 416C151.333 416 76.1667 416 1 416C1 277.667 1 139.333 1 1C137.333 1 273.667 1 410 1C410 139.333 410 277.667 410 416C349.167 416 288.333 416 227 416ZM279.435 110.045C279.246 110.351 279.057 110.657 278.955 110.963C278.955 110.963 278.938 110.877 278.387 111.118C277.891 111.73 277.395 112.341 276.976 112.976C276.976 112.976 276.951 112.9 276.457 113.075C276.127 113.473 275.796 113.872 275.36 114.404C275.36 114.404 275.23 114.514 274.774 114.871C273.916 115.934 273.059 116.998 272.045 118.063C272.045 118.063 272.067 118.218 271.529 118.252C271.127 118.821 270.726 119.389 269.975 120.483C269.268 121.193 268.56 121.904 267.312 122.877C267.132 123.23 266.951 123.583 266.938 123.931C266.938 123.931 266.905 123.767 266.366 123.965C266.178 124.288 265.99 124.611 265.943 124.943C265.943 124.943 265.929 124.802 265.386 124.981C265.188 125.296 264.99 125.612 264.938 125.941C264.938 125.941 264.926 125.794 264.394 125.998C264.209 126.317 264.023 126.637 263.964 126.968C263.964 126.968 263.961 126.841 263.402 127.02C263.181 127.337 262.96 127.654 262.332 128.054C262.07 128.217 261.95 128.452 261.444 129.025C261.22 129.341 260.996 129.657 260.351 130.068C260.087 130.245 259.962 130.492 259.395 131.1C258.424 132.172 257.452 133.243 256.442 134.444C256.442 134.444 256.35 134.541 255.98 134.724C255.74 134.886 255.59 135.109 255.415 135.467C255.415 135.467 255.284 135.508 254.871 135.822C254.414 136.332 253.957 136.842 253.355 137.476C253.355 137.476 253.232 137.622 253.003 137.746C253.003 137.746 252.947 138 252.34 138.274C244.795 146.112 237.403 154.106 229.66 161.744C222.273 169.032 214.508 175.936 206.932 183.034C202.868 186.841 199.062 190.953 194.774 194.482C185.215 202.348 175.478 210.002 165.716 217.618C155.533 225.562 145.449 233.659 134.929 241.138C124.506 248.549 113.665 255.383 102.869 262.254C96.7223 266.166 90.2836 269.618 84.0061 273.328C80.6041 275.338 76.8506 277.023 74.0636 279.697C72.5627 281.137 72.7667 284.353 72.2014 286.768C74.1996 287.219 76.5167 288.553 78.1404 287.967C84.8953 285.527 91.4506 282.531 98.0601 279.695C101.516 278.212 104.9 276.56 108.374 275.122C113.192 273.129 118.252 271.632 122.874 269.271C132.687 264.258 142.286 258.827 151.969 253.56C159.268 249.59 166.851 246.053 173.792 241.531C185.87 233.662 197.596 225.248 209.379 216.934C216.148 212.158 222.99 207.433 229.349 202.143C238.236 194.751 246.71 186.86 255.348 179.168C263.253 172.13 271.142 165.074 279.52 157.866C279.844 157.481 280.167 157.096 280.564 156.588C280.564 156.588 280.684 156.511 281.149 156.196C281.927 155.403 282.704 154.61 283.697 153.647C283.697 153.647 283.809 153.398 284.081 153.247C284.249 153.116 284.364 152.949 284.639 152.653C284.639 152.653 284.81 152.495 285.262 152.156C285.896 151.446 286.53 150.736 287.598 149.921C287.879 149.751 288.022 149.501 288.591 148.928C289.1 148.305 289.61 147.681 290.038 147.038C290.038 147.038 290.058 147.119 290.613 146.888C291.116 146.279 291.619 145.67 292.037 145.045C292.037 145.045 292.038 145.131 292.563 144.955C292.753 144.648 292.943 144.342 293.046 144.037C293.046 144.037 293.063 144.123 293.619 143.89C294.119 143.28 294.619 142.67 295.037 142.038C295.037 142.038 295.063 142.119 295.536 141.944C295.859 141.567 296.182 141.19 296.704 140.667C296.704 140.667 296.849 140.468 297.23 140.188C297.653 139.729 298.076 139.269 298.691 138.637C298.691 138.637 298.795 138.401 299.067 138.257C299.235 138.13 299.353 137.966 299.655 137.634C299.655 137.634 299.795 137.406 300.094 137.233C300.287 137.09 300.409 136.9 300.575 136.551C300.575 136.551 300.699 136.448 301.032 136.296C301.238 136.149 301.379 135.955 301.611 135.589C301.611 135.589 301.74 135.438 302.053 135.262C302.251 135.114 302.389 134.924 302.589 134.568C302.589 134.568 302.713 134.447 303.048 134.248C303.261 134.084 303.408 133.873 303.638 133.509C303.638 133.509 303.769 133.379 303.987 133.259C303.987 133.259 304.037 133.014 304.655 132.74C315.035 121.443 325.415 110.147 336.211 98.3986C343.106 104.791 349.768 110.967 356.905 117.774C359.82 119.569 362.6 119.759 365.05 117.05C365.05 117.05 365.08 117.138 365.766 116.815C366.446 112.215 367.125 107.615 367.965 102.34C367.914 101.882 367.863 101.425 367.956 100.178C367.916 99.1146 367.875 98.0506 367.975 96.0605C368.029 88.8354 368.082 81.6102 368.512 73.6191C368.573 70.737 368.634 67.8548 368.866 64.3393C368.835 63.906 368.805 63.4726 368.962 62.1135C368.989 55.9536 369.048 49.7936 369.032 43.6338C369.021 38.8477 367.123 37.1399 361.333 36.9333C356.622 37.6096 351.883 38.1314 347.206 38.9938C337.067 40.8634 326.961 42.9072 316.109 45.1966C309.456 46.465 302.767 47.5739 296.162 49.0557C291.458 50.1109 290.412 54.8648 293.975 58.3944C298.816 63.1909 303.621 68.0382 308.697 72.5782C311.713 75.2761 311.499 77.1092 308.676 79.8393C302.931 85.394 297.532 91.3071 291.472 97.2132C291.139 97.6291 290.806 98.0449 290.476 98.5624C290.476 98.5624 290.374 98.5512 289.881 98.9257C288.486 100.566 287.092 102.206 285.867 103.877C285.867 103.877 285.843 103.707 285.315 103.928C285.124 104.249 284.933 104.571 284.905 104.909C284.905 104.909 284.883 104.746 284.351 104.954C284.163 105.278 283.974 105.601 283.933 105.936C283.933 105.936 283.917 105.79 283.389 105.99C283.2 106.308 283.011 106.626 282.951 106.953C282.951 106.953 282.939 106.824 282.416 107.022C282.225 107.333 282.034 107.644 281.961 107.962C281.961 107.962 281.953 107.845 281.431 108.038C281.236 108.344 281.041 108.65 280.962 108.963C280.962 108.963 280.954 108.847 280.435 109.043C280.239 109.347 280.044 109.651 279.962 109.963C279.962 109.963 279.953 109.85 279.435 110.045ZM75.0503 264.073C75.0503 264.073 75.055 264.183 75.6784 264.052C76.1779 263.738 76.6774 263.423 77.0702 263.086C77.0702 263.086 77.0804 263.194 77.7206 263.062C78.4714 262.649 79.2222 262.236 80.6563 261.768C82.7244 260.207 84.6691 258.439 86.882 257.12C96.0937 251.633 105.581 246.585 114.589 240.787C122.267 235.847 129.4 230.065 136.823 224.724C143.663 219.802 150.762 215.22 157.391 210.033C164.406 204.543 170.986 198.498 177.784 192.727C183.194 188.135 188.645 183.592 194.179 179.004C194.179 179.004 194.241 178.92 194.684 178.793C194.684 178.793 194.871 178.371 195.403 178.042C192.611 176.641 189.818 175.24 187.023 173.943C187.023 173.943 187.126 173.93 186.817 173.285C185.886 173.135 184.954 172.985 184.022 172.944C184.022 172.944 184.129 172.927 183.814 172.292C182.224 171.919 180.634 171.547 178.165 170.96C175.755 170.964 173.345 170.969 170.482 170.343C169.339 169.919 168.196 169.127 167.052 169.125C150.698 169.095 134.344 169.171 117.182 169.185C115.722 169.449 114.227 169.591 112.809 169.997C104.844 172.28 96.8983 174.626 88.2458 177.208C85.0518 178.978 81.9798 181.031 78.6421 182.466C66.5891 187.647 58.1641 196.951 50.6572 207.152C47.8497 210.967 46.1462 215.595 43.2582 220.185C41.5614 226.125 39.8646 232.066 38.02 238.884C37.6852 242.144 37.0649 245.404 37.0592 248.665C36.9887 288.714 36.9948 328.763 37.0507 368.813C37.0531 370.531 37.7318 372.249 38.0315 374.683C39.5802 378.868 42.5743 381.244 47.9223 381.984C72.9381 381.929 97.9539 381.873 123.609 381.869C124.396 381.248 125.183 380.627 126.437 379.305C126.645 377.678 127.031 376.052 127.034 374.424C127.075 352.805 127.076 331.187 127.054 309.568C127.049 304.08 125.484 302.451 119.973 302.396C111.659 302.313 103.343 302.435 95.0292 302.363C85.5642 302.28 75.8934 303.783 66.3344 298.773C60.8063 293.004 58.2793 286.181 59.6759 277.792C59.8728 276.893 60.0697 275.995 60.134 275.078C60.134 275.078 60.1605 275.209 60.7084 274.913C60.9259 274.331 61.1434 273.75 61.1764 273.132C61.1764 273.132 61.2053 273.318 61.7058 273.065C61.8611 272.727 62.0164 272.39 62.0654 272.046C62.0654 272.046 62.0838 272.151 62.6387 271.915C63.1414 271.304 63.6441 270.692 64.0473 270.063C64.0473 270.063 64.0539 270.164 64.5838 269.983C64.8283 269.721 65.0728 269.458 65.1491 269.169C65.1491 269.169 65.1897 269.334 65.8439 269.154C66.9496 268.468 68.0552 267.783 69.0586 267.075C69.0586 267.075 69.0644 267.179 69.7426 267.052C70.8926 266.411 72.0426 265.77 73.0697 265.105C73.0697 265.105 73.0838 265.23 73.7018 265.089C74.1875 264.757 74.6731 264.426 75.0503 264.073ZM177.671 144.098C178.022 143.745 178.372 143.393 179.094 142.41C182.34 139.502 185.419 136.378 188.866 133.733C195.432 128.696 198.339 121.508 201.72 113.868C201.905 112.949 202.091 112.029 202.147 111.084C202.147 111.084 202.169 111.214 202.816 110.807C206.17 99.9548 207.236 88.9891 204.287 77.0566C203.615 75.2596 202.795 73.5029 202.296 71.6592C197.774 54.9645 187.292 43.388 171.839 35.3017C160.522 29.1079 148.171 27.5826 135.807 29.4112C128.111 30.5494 120.808 34.3461 112.906 37.589C100.176 43.2613 92.2052 53.3099 86.2472 66.1598C85.9107 67.0834 85.5387 67.9957 85.243 68.9322C79.6048 86.7886 79.5288 104.251 89.0197 121.746C101.643 145.665 130.51 157.861 156.802 152.946C162.578 150.656 168.355 148.367 174.05 146.056C174.05 146.056 174.051 146.14 174.685 146.006C175.527 145.389 176.37 144.772 177.102 144.129C177.102 144.129 177.125 144.24 177.671 144.098ZM318.412 148.019C318.216 148.33 318.021 148.641 317.946 148.971C317.946 148.971 317.927 148.85 317.222 149.381C317.081 150.864 316.818 152.347 316.818 153.83C316.793 227.414 316.783 300.998 316.835 374.582C316.836 376.43 317.541 378.277 317.931 380.024C317.931 380.024 317.832 380.049 317.983 380.606C318.313 380.783 318.643 380.961 318.98 381.039C318.98 381.039 318.882 381.059 319.394 381.77C338.259 381.752 357.123 381.734 376.694 381.523C377.462 379.139 378.898 376.757 378.902 374.372C379.02 301.427 379 228.482 378.987 155.536C378.987 153.711 378.841 151.887 378.762 149.441C377.835 148.7 376.908 147.959 375.061 147.025C357.7 147.015 340.34 146.984 322.979 147.036C321.61 147.04 320.243 147.625 318.966 147.965C318.966 147.965 318.96 147.87 318.412 148.019ZM234.401 215.073C234.231 215.367 234.061 215.661 233.975 215.974C233.975 215.974 233.956 215.891 233.256 216.416C233.172 217.072 233.013 217.727 233.013 218.383C233.003 271.245 233.005 324.107 233.017 376.969C233.017 377.626 233.162 378.283 233.277 379.555C234.199 380.288 235.12 381.02 236.953 381.974C253.948 381.984 270.944 382.051 287.939 381.919C289.67 381.906 291.392 380.7 293.044 380.006C293.044 380.006 293.05 380.091 293.553 379.919C293.642 379.611 293.73 379.302 293.985 378.07C293.986 325.552 293.994 273.035 293.947 220.517C293.946 219.038 293.348 217.559 292.544 215.832C292.326 215.547 292.108 215.261 291.547 214.185C273.531 214.121 255.515 214.044 237.5 214.035C236.638 214.035 235.777 214.644 234.401 215.073ZM210.527 379.891C210.616 379.59 210.704 379.289 210.996 378.072C211.025 342.917 211.066 307.762 211.04 272.608C211.038 271.222 210.389 269.837 210.019 268.142C209.89 267.931 209.708 267.866 208.847 267.273C190.321 267.187 171.794 267.093 153.268 267.048C152.703 267.047 152.137 267.558 151.083 267.912C150.806 268.28 150.529 268.648 149.896 269.897C149.839 305.325 149.769 340.753 149.776 376.18C149.776 377.537 150.524 378.893 151.024 380.694C151.21 380.985 151.473 381.105 152.379 381.726C170.4 381.816 188.42 381.944 206.441 381.911C207.665 381.908 208.888 380.696 210.037 380.01C210.037 380.01 210.048 380.091 210.527 379.891Z" fill="#FCFCFC"/>
<path d="M125.971 380.005C125.183 380.627 124.396 381.248 122.973 381.578C97.8061 381.203 73.2756 381.115 48.7449 381.071C48.1603 381.07 47.5748 381.573 46.9898 381.842C42.5744 381.244 39.5802 378.868 38.3339 374.059C38.7788 328.291 38.9215 283.147 39.3316 237.753C41.0459 231.619 42.4926 225.735 43.9394 219.852C46.1462 215.595 47.8497 210.967 50.6572 207.152C58.1641 196.952 66.5891 187.648 78.6421 182.466C81.9798 181.031 85.0519 178.978 89.0027 177.092C91.8196 176.494 93.8707 175.97 95.941 175.538C103.288 174.007 110.642 172.507 118.462 170.996C136.266 170.989 153.601 170.981 170.935 170.974C173.345 170.969 175.755 170.965 178.688 171.427C180.85 172.238 182.49 172.583 184.129 172.927C184.129 172.927 184.022 172.944 184.201 173.2C185.295 173.614 186.211 173.772 187.126 173.93C187.126 173.93 187.023 173.944 187.193 174.211C189.866 175.776 192.368 177.074 194.871 178.372C194.871 178.372 194.684 178.793 194.368 178.693C193.941 178.546 193.829 178.499 193.717 178.452C193.837 178.644 193.957 178.836 194.077 179.027C188.645 183.592 183.194 188.135 177.784 192.727C170.986 198.498 164.406 204.543 157.391 210.033C150.762 215.22 143.663 219.802 136.823 224.724C129.4 230.065 122.267 235.847 114.589 240.788C105.581 246.585 96.0937 251.633 86.882 257.12C84.6691 258.439 82.7244 260.207 80.1172 261.577C78.7456 261.989 77.913 262.592 77.0804 263.194C77.0804 263.194 77.0702 263.086 76.7921 263.087C76.0277 263.454 75.5414 263.819 75.055 264.183C75.055 264.183 75.0503 264.073 74.7725 264.073C74.0244 264.458 73.5541 264.844 73.0838 265.23C73.0838 265.23 73.0697 265.105 72.7601 265.071C71.3218 265.751 70.1931 266.465 69.0645 267.18C69.0645 267.18 69.0586 267.075 68.7337 267.056C67.3357 267.803 66.2627 268.569 65.1897 269.334C65.1897 269.334 65.1492 269.169 64.9491 269.232C64.5174 269.585 64.2856 269.874 64.0539 270.164C64.0539 270.164 64.0473 270.064 63.7476 270.077C62.9932 270.777 62.5385 271.464 62.0838 272.151C62.0838 272.151 62.0654 272.047 61.8533 272.165C61.4959 272.629 61.3506 272.973 61.2053 273.318C61.2053 273.318 61.1764 273.132 60.9419 273.249C60.5251 273.98 60.3428 274.595 60.1605 275.209C60.1605 275.209 60.134 275.078 59.8704 275.241C59.4404 276.33 59.274 277.255 59.1076 278.18C58.2793 286.181 60.8063 293.004 66.8242 299.186C71.5981 301.064 75.8355 303.604 80.175 303.792C93.1227 304.354 106.11 303.982 119.083 303.998C124.682 304.005 125.965 305.12 125.981 310.586C126.042 331.208 126.005 351.83 126.002 372.453C126.002 374.97 125.982 377.488 125.971 380.005Z" fill="#004F64"/>
<path d="M375.981 147.218C376.908 147.959 377.835 148.7 378.515 150.076C378.172 152.532 377.995 154.352 377.995 156.172C377.981 228.119 378.007 300.067 377.898 372.014C377.893 375.04 376.644 378.063 375.51 381.05C356.324 381.027 337.603 381.043 318.882 381.059C318.882 381.059 318.98 381.038 318.896 380.811C318.485 380.406 318.158 380.228 317.832 380.049C317.832 380.049 317.932 380.024 317.973 379.598C317.985 302.399 317.956 225.625 317.927 148.85C317.927 148.85 317.946 148.971 318.162 148.887C318.572 148.493 318.766 148.181 318.96 147.87C318.96 147.87 318.966 147.965 319.399 147.968C337.122 147.982 354.413 148.011 371.703 147.968C373.13 147.965 374.555 147.479 375.981 147.218Z" fill="#009260"/>
<path d="M156.034 152.831C130.51 157.861 101.643 145.665 88.9981 120.994C88.714 118.969 88.683 117.59 88.1532 116.441C82.7238 104.661 81.7778 92.3827 84.0155 79.7663C84.8436 75.0973 85.9481 70.4773 86.9265 65.835C92.2051 53.31 100.176 43.2614 113.483 37.2761C116.394 36.1333 118.698 35.2055 121.067 34.4912C130.415 31.6724 139.745 28.5074 149.739 30.7806C157.129 32.4615 164.49 34.2692 171.864 36.0204C187.292 43.388 197.774 54.9646 202.295 71.6593C202.795 73.503 203.615 75.2596 204.04 77.6535C203.865 82.6747 204.2 87.1141 203.948 91.5199C203.572 98.097 202.782 104.65 202.169 111.214C202.169 111.214 202.146 111.084 201.883 111.246C201.435 112.322 201.251 113.236 201.067 114.15C198.339 121.508 195.432 128.696 188.866 133.734C185.419 136.378 182.339 139.502 178.629 142.757C177.818 143.482 177.471 143.861 177.125 144.24C177.125 144.24 177.102 144.129 176.81 144.109C175.696 144.772 174.874 145.456 174.051 146.14C174.051 146.14 174.05 146.056 173.695 146.045C172.074 146.349 170.745 146.511 169.554 147.006C165.023 148.889 160.537 150.88 156.034 152.831Z" fill="#004F64"/>
<path d="M367.812 100.968C367.863 101.425 367.914 101.882 367.51 102.783C366.396 107.864 365.738 112.501 365.08 117.138C365.08 117.138 365.05 117.05 364.697 117.04C361.705 117.068 359.067 117.105 356.43 117.143C349.768 110.967 343.106 104.791 336.211 98.3986C325.415 110.147 315.035 121.443 304.218 132.717C303.647 132.696 303.512 132.699 303.378 132.701C303.508 132.927 303.639 133.153 303.769 133.379C303.769 133.379 303.638 133.509 303.26 133.464C302.826 133.763 302.77 134.105 302.713 134.447C302.713 134.447 302.589 134.568 302.239 134.504C301.839 134.772 301.79 135.105 301.74 135.438C301.74 135.438 301.611 135.589 301.247 135.516C300.821 135.778 300.76 136.113 300.699 136.448C300.699 136.448 300.575 136.551 300.228 136.488C299.793 136.527 299.625 136.633 299.63 136.73C299.641 136.957 299.734 137.181 299.795 137.406C299.795 137.406 299.655 137.634 299.273 137.545C298.799 137.554 298.626 137.654 298.631 137.746C298.641 137.966 298.735 138.183 298.795 138.401C298.795 138.401 298.691 138.637 298.27 138.554C297.516 139.137 297.182 139.803 296.849 140.468C296.849 140.468 296.704 140.667 296.304 140.587C295.623 141.044 295.343 141.581 295.063 142.119C295.063 142.119 295.037 142.038 294.733 142.059C293.974 142.761 293.519 143.442 293.063 144.123C293.063 144.123 293.046 144.037 292.829 144.129C292.421 144.524 292.229 144.828 292.038 145.131C292.038 145.131 292.037 145.045 291.736 145.07C290.976 145.77 290.517 146.444 290.058 147.119C290.058 147.119 290.038 147.039 289.73 147.067C288.957 147.788 288.493 148.481 288.028 149.173C288.022 149.502 287.878 149.751 287.015 149.985C285.892 150.865 285.351 151.68 284.81 152.495C284.81 152.495 284.639 152.653 284.263 152.553C283.798 152.55 283.63 152.654 283.636 152.747C283.65 152.967 283.746 153.181 283.809 153.398C283.809 153.398 283.697 153.647 283.266 153.56C282.119 154.485 281.402 155.498 280.684 156.511C280.684 156.511 280.564 156.588 280.273 156.495C279.667 156.943 279.352 157.485 279.038 158.026C271.142 165.074 263.253 172.13 255.348 179.168C246.71 186.86 238.236 194.751 229.349 202.143C222.99 207.433 216.148 212.158 209.379 216.934C197.596 225.248 185.87 233.662 173.792 241.531C166.851 246.053 159.268 249.59 151.969 253.56C142.286 258.827 132.687 264.258 122.874 269.271C118.252 271.632 113.192 273.129 108.374 275.122C104.9 276.56 101.516 278.212 98.0601 279.695C91.4506 282.531 84.8953 285.527 78.1404 287.967C76.5167 288.553 74.1996 287.219 72.2014 286.768C72.7667 284.353 72.5627 281.137 74.0636 279.697C76.8505 277.023 80.6041 275.338 84.0061 273.328C90.2836 269.618 96.7223 266.166 102.869 262.254C113.665 255.384 124.506 248.549 134.929 241.138C145.449 233.659 155.533 225.562 165.716 217.618C175.478 210.002 185.215 202.348 194.774 194.482C199.062 190.953 202.868 186.841 206.932 183.034C214.508 175.936 222.273 169.032 229.66 161.744C237.403 154.106 244.795 146.112 252.78 138.301C253.36 138.326 253.5 138.323 253.641 138.32C253.504 138.088 253.368 137.855 253.232 137.622C253.232 137.622 253.355 137.476 253.774 137.549C254.556 136.917 254.92 136.213 255.284 135.508C255.284 135.508 255.415 135.467 255.781 135.534C256.215 135.247 256.282 134.894 256.35 134.541C256.35 134.541 256.442 134.444 256.811 134.515C258.112 133.328 259.044 132.068 259.976 130.809C259.962 130.492 260.087 130.245 260.846 129.915C261.55 129.427 261.76 129.094 261.969 128.76C261.95 128.452 262.07 128.217 262.818 127.92C263.522 127.471 263.742 127.156 263.961 126.841C263.961 126.841 263.964 126.969 264.17 126.866C264.56 126.441 264.743 126.117 264.926 125.794C264.926 125.794 264.938 125.941 265.145 125.854C265.544 125.446 265.737 125.124 265.929 124.802C265.929 124.802 265.943 124.943 266.152 124.852C266.543 124.429 266.724 124.098 266.905 123.767C266.905 123.767 266.938 123.931 267.146 123.822C267.52 123.347 267.687 122.981 267.853 122.615C268.56 121.904 269.268 121.193 270.425 120.181C271.272 119.326 271.67 118.772 272.067 118.218C272.067 118.218 272.045 118.063 272.454 117.993C273.652 116.787 274.441 115.65 275.23 114.514C275.23 114.514 275.36 114.404 275.727 114.463C276.381 113.981 276.666 113.441 276.951 112.9C276.951 112.9 276.976 112.976 277.28 112.946C278.035 112.237 278.486 111.557 278.938 110.877C278.938 110.877 278.955 110.963 279.167 110.861C279.57 110.456 279.761 110.153 279.953 109.85C279.953 109.85 279.962 109.963 280.164 109.86C280.563 109.454 280.759 109.151 280.954 108.847C280.954 108.847 280.962 108.963 281.166 108.863C281.564 108.457 281.758 108.151 281.953 107.845C281.953 107.845 281.961 107.962 282.166 107.862C282.56 107.449 282.75 107.137 282.939 106.825C282.939 106.825 282.951 106.953 283.155 106.851C283.545 106.429 283.731 106.109 283.917 105.79C283.917 105.79 283.933 105.936 284.136 105.836C284.52 105.406 284.702 105.076 284.883 104.746C284.883 104.746 284.905 104.909 285.109 104.816C285.489 104.383 285.666 104.045 285.843 103.707C285.843 103.707 285.867 103.877 286.146 103.818C287.742 102.023 289.058 100.287 290.374 98.5512C290.374 98.5512 290.476 98.5624 290.79 98.5884C291.4 98.1005 291.695 97.5865 291.991 97.0725C297.532 91.3071 302.931 85.394 308.676 79.8394C311.499 77.1093 311.713 75.2761 308.697 72.5782C303.621 68.0383 298.816 63.1909 293.975 58.3945C290.412 54.8648 291.458 50.111 296.162 49.0557C302.767 47.5739 309.456 46.465 316.929 45.0754C332.495 42.3507 347.242 39.7473 361.989 37.1438C367.123 37.14 369.021 38.8478 369.032 43.6339C369.048 49.7937 368.989 55.9537 368.494 62.6877C367.689 64.7843 367.073 66.3043 367.06 67.8297C366.972 77.5501 367.018 87.2717 367.009 97.3473C367.27 98.7903 367.541 99.879 367.812 100.968Z" fill="#019260"/>
<path d="M291.89 214.975C292.108 215.261 292.326 215.547 292.778 216.419C293.009 271.004 293.006 325.002 293.002 379.273C293.017 379.727 293.034 379.909 293.05 380.09C293.05 380.09 293.044 380.006 292.654 380.043C290.16 380.384 288.058 380.942 285.953 380.953C271.069 381.029 256.185 380.968 241.301 381.027C239.547 381.034 237.795 381.5 236.042 381.753C235.12 381.02 234.199 380.288 233.509 378.924C233.828 377.471 233.989 376.648 233.989 375.826C233.986 322.514 233.97 269.203 233.956 215.891C233.956 215.891 233.975 215.974 234.244 215.988C234.983 215.663 235.453 215.326 236.396 214.997C255.209 214.994 273.55 214.985 291.89 214.975Z" fill="#009260"/>
<path d="M150.252 269.017C150.529 268.649 150.806 268.28 151.819 267.937C171.528 267.958 190.501 267.953 209.475 267.949C209.708 267.867 209.89 267.931 210.01 268.805C210.005 305.978 210.009 342.487 210.012 379.27C210.024 379.726 210.036 379.909 210.048 380.091C210.048 380.091 210.037 380.01 209.647 380.043C206.988 380.382 204.72 380.941 202.448 380.954C185.571 381.048 168.692 381.033 151.814 381.053C151.473 381.105 151.21 380.985 151.019 379.989C151.008 344.462 151.015 309.641 150.967 274.819C150.964 272.885 150.501 270.951 150.252 269.017Z" fill="#009261"/>
<path d="M375.975 381.088C376.644 378.063 377.893 375.04 377.897 372.014C378.007 300.067 377.98 228.12 377.995 156.172C377.995 154.352 378.172 152.532 378.515 150.387C378.841 151.887 378.987 153.711 378.987 155.536C379 228.482 379.02 301.427 378.902 374.372C378.898 376.757 377.462 379.14 376.334 381.463C375.974 381.402 375.975 381.088 375.975 381.088Z" fill="#017C3C"/>
<path d="M317.574 149.116C317.956 225.625 317.985 302.399 317.966 379.649C317.541 378.278 316.836 376.43 316.835 374.582C316.783 300.998 316.793 227.414 316.818 153.83C316.818 152.347 317.081 150.864 317.574 149.116Z" fill="#007020"/>
<path d="M126.204 379.655C125.982 377.488 126.002 374.97 126.002 372.452C126.005 351.83 126.042 331.208 125.981 310.586C125.965 305.12 124.682 304.005 119.082 303.998C106.11 303.982 93.1226 304.354 80.1749 303.792C75.8354 303.604 71.598 301.064 67.1542 299.287C75.8934 303.783 85.5641 302.28 95.0291 302.363C103.343 302.435 111.659 302.313 119.973 302.396C125.484 302.451 127.049 304.08 127.054 309.568C127.076 331.187 127.075 352.805 127.034 374.424C127.031 376.052 126.645 377.678 126.204 379.655Z" fill="#1B222C"/>
<path d="M233.606 216.154C233.97 269.203 233.986 322.514 233.989 375.826C233.989 376.648 233.828 377.471 233.49 378.617C233.162 378.283 233.017 377.626 233.017 376.969C233.005 324.107 233.003 271.245 233.013 218.383C233.013 217.727 233.172 217.072 233.606 216.154Z" fill="#006C27"/>
<path d="M293.003 378.999C293.006 325.002 293.009 271.004 293.021 216.543C293.348 217.559 293.946 219.038 293.947 220.518C293.994 273.035 293.986 325.552 293.698 378.534C293.411 378.998 293.003 378.999 293.003 378.999Z" fill="#006D23"/>
<path d="M39.0641 238.003C38.9215 283.147 38.7788 328.29 38.3658 373.7C37.7318 372.249 37.0532 370.531 37.0508 368.813C36.9948 328.763 36.9888 288.714 37.0592 248.664C37.0649 245.404 37.6853 242.144 38.318 238.444C38.616 238.004 39.0641 238.003 39.0641 238.003Z" fill="#004F64"/>
<path d="M150.074 269.457C150.501 270.951 150.964 272.885 150.967 274.819C151.015 309.641 151.008 344.462 150.968 379.767C150.524 378.893 149.776 377.537 149.776 376.18C149.769 340.753 149.839 305.325 150.074 269.457Z" fill="#017128"/>
<path d="M210.012 378.996C210.009 342.487 210.005 305.978 210.022 268.96C210.389 269.837 211.039 271.222 211.04 272.608C211.067 307.762 211.025 342.917 210.699 378.532C210.402 378.993 210.012 378.996 210.012 378.996Z" fill="#006D23"/>
<path d="M170.709 170.658C153.601 170.981 136.266 170.989 118.464 170.701C117.994 170.01 117.992 169.616 117.99 169.222C134.344 169.171 150.698 169.095 167.052 169.125C168.196 169.127 169.339 169.919 170.709 170.658Z" fill="#030E26"/>
<path d="M171.852 35.661C164.49 34.2691 157.129 32.4615 149.739 30.7806C139.745 28.5074 130.415 31.6724 121.067 34.4912C118.698 35.2054 116.394 36.1333 113.694 36.9564C120.808 34.3461 128.111 30.5494 135.807 29.4112C148.171 27.5826 160.522 29.1079 171.852 35.661Z" fill="#004F64"/>
<path d="M86.5868 65.9973C85.9481 70.4772 84.8436 75.0972 84.0155 79.7662C81.7778 92.3826 82.7238 104.661 88.1532 116.44C88.683 117.59 88.714 118.969 88.9674 120.638C79.5287 104.251 79.6048 86.7885 85.2429 68.9322C85.5386 67.9957 85.9107 67.0834 86.5868 65.9973Z" fill="#10151D"/>
<path d="M47.4561 381.913C47.5749 381.573 48.1604 381.07 48.7449 381.071C73.2756 381.115 97.8062 381.203 122.653 381.552C97.954 381.873 72.9381 381.929 47.4561 381.913Z" fill="#004F64"/>
<path d="M361.661 37.0386C347.242 39.7473 332.495 42.3507 317.295 44.9169C326.961 42.9072 337.067 40.8634 347.206 38.9939C351.883 38.1314 356.622 37.6096 361.661 37.0386Z" fill="#0B7D42"/>
<path d="M152.097 381.389C168.692 381.033 185.571 381.048 202.448 380.954C204.72 380.941 206.988 380.382 209.684 380.061C208.887 380.696 207.665 381.908 206.441 381.911C188.42 381.944 170.4 381.816 152.097 381.389Z" fill="#017330"/>
<path d="M236.497 381.864C237.795 381.5 239.547 381.034 241.301 381.027C256.185 380.968 271.069 381.029 285.953 380.953C288.058 380.942 290.16 380.384 292.691 380.064C291.392 380.7 289.67 381.906 287.939 381.919C270.944 382.051 253.948 381.984 236.497 381.864Z" fill="#01732D"/>
<path d="M209.161 267.611C190.501 267.953 171.528 267.958 152.063 267.896C152.137 267.559 152.703 267.047 153.268 267.048C171.794 267.093 190.321 267.187 209.161 267.611Z" fill="#006820"/>
<path d="M375.51 381.05C375.975 381.088 375.974 381.402 375.98 381.559C357.123 381.734 338.259 381.752 319.138 381.414C337.603 381.043 356.324 381.027 375.51 381.05Z" fill="#01732D"/>
<path d="M291.718 214.58C273.55 214.985 255.209 214.994 236.144 214.996C235.251 214.982 235.083 214.976 234.915 214.969C235.777 214.644 236.638 214.035 237.5 214.035C255.515 214.044 273.531 214.121 291.718 214.58Z" fill="#016F2B"/>
<path d="M375.521 147.122C374.555 147.479 373.13 147.965 371.703 147.968C354.413 148.011 337.122 147.982 319.353 147.956C320.243 147.625 321.61 147.04 322.979 147.036C340.34 146.984 357.7 147.015 375.521 147.122Z" fill="#017330"/>
<path d="M202.492 111.011C202.782 104.65 203.572 98.0969 203.948 91.5198C204.2 87.114 203.865 82.6746 204.12 78.0415C207.236 88.9891 206.17 99.9548 202.492 111.011Z" fill="#004F64"/>
<path d="M117.586 169.203C117.992 169.616 117.994 170.01 117.995 170.699C110.642 172.507 103.288 174.007 95.941 175.538C93.8706 175.97 91.8195 176.494 89.3528 176.963C96.8983 174.626 104.844 172.28 112.809 169.997C114.227 169.59 115.722 169.449 117.586 169.203Z" fill="#004F64"/>
<path d="M367.019 96.9927C367.018 87.2716 366.972 77.55 367.06 67.8296C367.073 66.3042 367.689 64.7841 368.4 63.1504C368.805 63.4725 368.835 63.9059 368.534 64.9846C368.18 68.5483 368.158 71.4667 368.136 74.385C368.082 81.6102 368.029 88.8353 367.701 96.5262C367.427 96.9918 367.019 96.9927 367.019 96.9927Z" fill="#017330"/>
<path d="M39.3316 237.753C39.0641 238.003 38.6159 238.004 38.3918 238.005C39.8646 232.066 41.5613 226.125 43.5987 220.019C42.4926 225.735 41.0458 231.619 39.3316 237.753Z" fill="#004F64"/>
<path d="M156.418 152.889C160.537 150.88 165.023 148.889 169.554 147.006C170.745 146.511 172.074 146.348 173.735 146.055C168.355 148.367 162.578 150.656 156.418 152.889Z" fill="#004F64"/>
<path d="M365.423 116.976C365.738 112.501 366.396 107.863 367.429 103.121C367.125 107.615 366.446 112.215 365.423 116.976Z" fill="#077C41"/>
<path d="M195.137 178.207C192.368 177.074 189.866 175.776 187.195 174.159C189.818 175.24 192.611 176.641 195.137 178.207Z" fill="#004F64"/>
<path d="M356.667 117.458C359.067 117.105 361.705 117.068 364.74 117.055C362.6 119.759 359.82 119.569 356.667 117.458Z" fill="#077C41"/>
<path d="M290.128 98.7385C289.058 100.287 287.742 102.023 286.062 103.803C287.092 102.206 288.486 100.566 290.128 98.7385Z" fill="#077C41"/>
<path d="M368.324 74.0021C368.158 71.4667 368.18 68.5484 368.448 65.3013C368.634 67.8547 368.573 70.7369 368.324 74.0021Z" fill="#019260"/>
<path d="M183.972 172.609C182.49 172.583 180.85 172.238 179.127 171.534C180.634 171.547 182.224 171.919 183.972 172.609Z" fill="#004F64"/>
<path d="M259.685 130.955C259.044 132.069 258.112 133.328 256.831 134.451C257.452 133.244 258.424 132.172 259.685 130.955Z" fill="#077739"/>
<path d="M275.002 114.692C274.441 115.65 273.652 116.787 272.532 117.993C273.059 116.998 273.916 115.934 275.002 114.692Z" fill="#077C41"/>
<path d="M69.4036 267.116C70.1931 266.465 71.3218 265.751 72.8215 265.083C72.0426 265.77 70.8927 266.411 69.4036 267.116Z" fill="#004F64"/>
<path d="M280.917 156.354C281.402 155.498 282.119 154.485 283.159 153.644C282.704 154.61 281.927 155.403 280.917 156.354Z" fill="#077C41"/>
<path d="M65.5168 269.244C66.2627 268.569 67.3357 267.803 68.7848 267.067C68.0553 267.783 66.9496 268.468 65.5168 269.244Z" fill="#004F64"/>
<path d="M77.4005 263.128C77.913 262.591 78.7455 261.989 79.7755 261.604C79.2222 262.236 78.4714 262.649 77.4005 263.128Z" fill="#004F64"/>
<path d="M367.009 97.3472C367.019 96.9928 367.427 96.9919 367.631 96.9893C367.875 98.0506 367.916 99.1145 367.884 100.573C367.541 99.8789 367.27 98.7903 367.009 97.3472Z" fill="#077C41"/>
<path d="M174.368 146.073C174.874 145.456 175.696 144.772 176.865 144.121C176.37 144.772 175.527 145.389 174.368 146.073Z" fill="#004F64"/>
<path d="M285.036 152.326C285.351 151.68 285.892 150.865 286.798 150.038C286.53 150.737 285.896 151.446 285.036 152.326Z" fill="#077C41"/>
<path d="M278.662 110.997C278.486 111.557 278.035 112.236 277.241 112.935C277.395 112.341 277.891 111.73 278.662 110.997Z" fill="#077C41"/>
<path d="M186.972 173.607C186.211 173.772 185.295 173.614 184.201 173.145C184.954 172.985 185.886 173.135 186.972 173.607Z" fill="#004F64"/>
<path d="M201.394 114.009C201.251 113.235 201.435 112.321 201.947 111.259C202.091 112.029 201.905 112.949 201.394 114.009Z" fill="#004F64"/>
<path d="M279.279 157.946C279.352 157.484 279.667 156.943 280.236 156.556C280.167 157.096 279.844 157.481 279.279 157.946Z" fill="#077C41"/>
<path d="M62.3612 272.033C62.5384 271.464 62.9931 270.777 63.7973 270.085C63.6441 270.692 63.1414 271.304 62.3612 272.033Z" fill="#004F64"/>
<path d="M59.3917 277.986C59.2739 277.255 59.4403 276.329 59.9367 275.25C60.0697 275.995 59.8728 276.893 59.3917 277.986Z" fill="#004F64"/>
<path d="M271.798 118.235C271.67 118.772 271.272 119.326 270.599 119.918C270.726 119.389 271.127 118.821 271.798 118.235Z" fill="#077C41"/>
<path d="M288.31 149.051C288.493 148.481 288.957 147.788 289.77 147.076C289.61 147.681 289.1 148.305 288.31 149.051Z" fill="#077C41"/>
<path d="M290.336 147.004C290.517 146.444 290.976 145.77 291.779 145.078C291.619 145.67 291.116 146.279 290.336 147.004Z" fill="#077C41"/>
<path d="M255.077 135.665C254.92 136.213 254.556 136.917 253.846 137.487C253.957 136.842 254.414 136.332 255.077 135.665Z" fill="#077739"/>
<path d="M293.341 144.006C293.519 143.442 293.974 142.761 294.774 142.07C294.619 142.67 294.119 143.28 293.341 144.006Z" fill="#077C41"/>
<path d="M297.039 140.328C297.182 139.803 297.516 139.137 298.174 138.64C298.076 139.269 297.653 139.729 297.039 140.328Z" fill="#077C41"/>
<path d="M295.299 142.032C295.343 141.581 295.623 141.044 296.204 140.66C296.182 141.191 295.859 141.568 295.299 142.032Z" fill="#077C41"/>
<path d="M60.4345 275.061C60.3428 274.595 60.5251 273.98 61.0342 273.267C61.1434 273.75 60.926 274.332 60.4345 275.061Z" fill="#004F64"/>
<path d="M234.658 215.021C235.083 214.976 235.251 214.982 235.671 214.989C235.453 215.326 234.983 215.664 234.203 215.978C234.061 215.661 234.231 215.367 234.658 215.021Z" fill="#006C27"/>
<path d="M75.3667 264.118C75.5413 263.819 76.0277 263.454 76.8455 263.099C76.6774 263.423 76.1779 263.738 75.3667 264.118Z" fill="#004F64"/>
<path d="M73.3928 265.159C73.5541 264.844 74.0244 264.458 74.8268 264.083C74.6732 264.426 74.1875 264.757 73.3928 265.159Z" fill="#004F64"/>
<path d="M291.731 97.1428C291.695 97.5864 291.4 98.1004 290.788 98.5375C290.806 98.0449 291.139 97.629 291.731 97.1428Z" fill="#077C41"/>
<path d="M177.398 144.169C177.471 143.861 177.818 143.482 178.444 143.072C178.372 143.393 178.022 143.745 177.398 144.169Z" fill="#004F64"/>
<path d="M276.704 112.987C276.666 113.441 276.381 113.981 275.78 114.396C275.796 113.872 276.127 113.473 276.704 112.987Z" fill="#077C41"/>
<path d="M285.579 103.817C285.666 104.045 285.489 104.383 285.027 104.807C284.933 104.571 285.124 104.249 285.579 103.817Z" fill="#077C41"/>
<path d="M301.897 135.35C301.79 135.105 301.839 134.772 302.177 134.564C302.389 134.923 302.251 135.114 301.897 135.35Z" fill="#077C41"/>
<path d="M64.3188 270.074C64.2856 269.874 64.5173 269.585 65.0332 269.245C65.0728 269.458 64.8283 269.721 64.3188 270.074Z" fill="#004F64"/>
<path d="M266.635 123.866C266.724 124.098 266.543 124.429 266.082 124.847C265.99 124.611 266.178 124.288 266.635 123.866Z" fill="#077739"/>
<path d="M302.881 134.348C302.77 134.105 302.826 133.762 303.186 133.518C303.408 133.873 303.261 134.083 302.881 134.348Z" fill="#077C41"/>
<path d="M303.878 133.319C303.639 133.153 303.508 132.927 303.378 132.701C303.512 132.699 303.647 132.696 303.909 132.854C304.037 133.014 303.987 133.259 303.878 133.319Z" fill="#077C41"/>
<path d="M61.4556 273.191C61.3507 272.973 61.4959 272.629 61.9065 272.168C62.0164 272.39 61.8611 272.727 61.4556 273.191Z" fill="#004F64"/>
<path d="M261.707 128.893C261.76 129.094 261.55 129.427 261.056 129.866C260.996 129.656 261.22 129.341 261.707 128.893Z" fill="#077739"/>
<path d="M263.682 126.931C263.742 127.156 263.522 127.471 263.021 127.878C262.96 127.653 263.181 127.337 263.682 126.931Z" fill="#077739"/>
<path d="M210.012 379.27C210.012 378.996 210.402 378.993 210.597 378.991C210.704 379.289 210.616 379.59 210.288 379.991C210.036 379.909 210.024 379.726 210.012 379.27Z" fill="#017330"/>
<path d="M293.002 379.273C293.003 378.999 293.411 378.998 293.614 378.995C293.73 379.302 293.642 379.611 293.302 380.005C293.034 379.909 293.017 379.728 293.002 379.273Z" fill="#01732D"/>
<path d="M264.66 125.896C264.743 126.117 264.56 126.441 264.107 126.86C264.023 126.637 264.208 126.318 264.66 125.896Z" fill="#077739"/>
<path d="M317.907 380.328C318.158 380.228 318.485 380.406 318.892 380.861C318.643 380.961 318.313 380.783 317.907 380.328Z" fill="#007020"/>
<path d="M265.658 124.891C265.737 125.124 265.544 125.446 265.072 125.848C264.99 125.612 265.188 125.296 265.658 124.891Z" fill="#077739"/>
<path d="M284.617 104.85C284.702 105.076 284.52 105.406 284.062 105.83C283.974 105.601 284.163 105.278 284.617 104.85Z" fill="#077C41"/>
<path d="M256.165 134.633C256.282 134.894 256.215 135.247 255.839 135.497C255.59 135.109 255.74 134.886 256.165 134.633Z" fill="#077739"/>
<path d="M300.865 136.372C300.76 136.113 300.821 135.778 301.169 135.579C301.379 135.955 301.238 136.149 300.865 136.372Z" fill="#077C41"/>
<path d="M283.653 105.89C283.731 106.109 283.545 106.429 283.09 106.846C283.011 106.626 283.2 106.308 283.653 105.89Z" fill="#077C41"/>
<path d="M299.944 137.319C299.734 137.181 299.641 136.957 299.63 136.73C299.625 136.633 299.793 136.527 300.171 136.545C300.409 136.9 300.287 137.09 299.944 137.319Z" fill="#077C41"/>
<path d="M282.678 106.923C282.75 107.136 282.56 107.449 282.107 107.858C282.034 107.644 282.225 107.333 282.678 106.923Z" fill="#077C41"/>
<path d="M281.692 107.942C281.758 108.151 281.564 108.457 281.108 108.859C281.041 108.65 281.236 108.344 281.692 107.942Z" fill="#077C41"/>
<path d="M280.695 108.945C280.759 109.151 280.563 109.454 280.108 109.856C280.044 109.651 280.239 109.347 280.695 108.945Z" fill="#077C41"/>
<path d="M279.694 109.947C279.761 110.153 279.57 110.456 279.123 110.861C279.057 110.657 279.246 110.351 279.694 109.947Z" fill="#077C41"/>
<path d="M194.128 179.016C193.957 178.836 193.837 178.644 193.717 178.452C193.829 178.499 193.941 178.546 194.147 178.756C194.241 178.92 194.179 179.004 194.128 179.016Z" fill="#004F64"/>
<path d="M298.931 138.329C298.735 138.183 298.641 137.966 298.631 137.746C298.626 137.654 298.799 137.554 299.156 137.612C299.353 137.966 299.235 138.13 298.931 138.329Z" fill="#077C41"/>
<path d="M253.118 137.684C253.368 137.855 253.504 138.088 253.641 138.32C253.5 138.323 253.36 138.326 253.083 138.164C252.947 138 253.003 137.746 253.118 137.684Z" fill="#077739"/>
<path d="M267.583 122.746C267.687 122.981 267.52 123.347 267.062 123.825C266.951 123.583 267.132 123.23 267.583 122.746Z" fill="#077739"/>
<path d="M292.3 145.043C292.229 144.828 292.421 144.524 292.873 144.128C292.943 144.342 292.753 144.648 292.3 145.043Z" fill="#077C41"/>
<path d="M283.945 153.323C283.746 153.181 283.65 152.967 283.636 152.747C283.63 152.654 283.798 152.55 284.156 152.598C284.364 152.949 284.249 153.116 283.945 153.323Z" fill="#077C41"/>
<path d="M318.686 147.945C318.766 148.181 318.572 148.493 318.101 148.878C318.021 148.641 318.216 148.33 318.686 147.945Z" fill="#007020"/>
</g>
<defs>
<clipPath id="clip0_2009_1258">
<rect width="409" height="415" fill="white"/>
</clipPath>
</defs>
</svg>
